<?xml version="1.0" encoding="UTF-8" standalone="no"?>
<svg
   xmlns:dc="http://purl.org/dc/elements/1.1/"
   xmlns:cc="http://creativecommons.org/ns#"
   xmlns:rdf="http://www.w3.org/1999/02/22-rdf-syntax-ns#"
   xmlns:svg="http://www.w3.org/2000/svg"
   xmlns="http://www.w3.org/2000/svg"
   xmlns:sodipodi="http://sodipodi.sourceforge.net/DTD/sodipodi-0.dtd"
   xmlns:inkscape="http://www.inkscape.org/namespaces/inkscape"
   enable-background="new 0 0 24 24"
   height="64"
   id="Layer_1"
   version="1.1"
   viewBox="0 0 64 64"
   width="64"
   x="0px"
   xml:space="preserve"
   y="0px"
   inkscape:version="0.48.4 r9939"
   sodipodi:docname="create_msg__buttons__add.svg"><metadata
     id="metadata9"><rdf:RDF><cc:Work
         rdf:about=""><dc:format>image/svg+xml</dc:format><dc:type
           rdf:resource="http://purl.org/dc/dcmitype/StillImage" /></cc:Work></rdf:RDF></metadata><defs
     id="defs7" /><sodipodi:namedview
     pagecolor="#ffffff"
     bordercolor="#666666"
     borderopacity="1"
     objecttolerance="10"
     gridtolerance="10"
     guidetolerance="10"
     inkscape:pageopacity="0"
     inkscape:pageshadow="2"
     inkscape:window-width="1150"
     inkscape:window-height="1058"
     id="namedview5"
     showgrid="false"
     inkscape:zoom="4.9166667"
     inkscape:cx="22.320551"
     inkscape:cy="21.25252"
     inkscape:window-x="0"
     inkscape:window-y="20"
     inkscape:window-maximized="0"
     inkscape:current-layer="Layer_1" /><path
     clip-rule="evenodd"
     d="m 61.714443,38.843036 h -23.007 v 23.007001 c 0,0.747051 -0.606303,1.353353 -1.353353,1.353353 H 26.527266 c -0.747051,0 -1.353353,-0.606302 -1.353353,-1.353353 V 38.843036 H 2.1669123 c -0.7470508,0 -1.35335298,-0.606302 -1.35335298,-1.353353 V 26.662859 c 0,-0.74705 0.60630218,-1.353353 1.35335298,-1.353353 H 25.173913 V 2.3025055 c 0,-0.7470508 0.606302,-1.35335294 1.353353,-1.35335294 H 37.35409 c 0.74705,0 1.353353,0.60630214 1.353353,1.35335294 V 25.309506 h 23.007 c 0.747051,0 1.353353,0.606303 1.353353,1.353353 v 10.826824 c 0,0.747051 -0.606302,1.353353 -1.353353,1.353353 z"
     id="path3"
     inkscape:connector-curvature="0"
     style="fill-rule:evenodd;fill:#ffffff;fill-opacity:1" /></svg>