<?xml version="1.0" encoding="UTF-8" standalone="no"?>
<svg
   xmlns:dc="http://purl.org/dc/elements/1.1/"
   xmlns:cc="http://creativecommons.org/ns#"
   xmlns:rdf="http://www.w3.org/1999/02/22-rdf-syntax-ns#"
   xmlns:svg="http://www.w3.org/2000/svg"
   xmlns="http://www.w3.org/2000/svg"
   xmlns:sodipodi="http://sodipodi.sourceforge.net/DTD/sodipodi-0.dtd"
   xmlns:inkscape="http://www.inkscape.org/namespaces/inkscape"
   enable-background="new 0 0 24 24"
   height="64"
   id="Layer_1"
   version="1.1"
   viewBox="0 0 64 64"
   width="64"
   x="0px"
   xml:space="preserve"
   y="0px"
   inkscape:version="0.48.4 r9939"
   sodipodi:docname="create_msg__buttons__add.svg"><metadata
     id="metadata9"><rdf:RDF><cc:Work
         rdf:about=""><dc:format>image/svg+xml</dc:format><dc:type
           rdf:resource="http://purl.org/dc/dcmitype/StillImage" /></cc:Work></rdf:RDF></metadata><defs
     id="defs7" /><sodipodi:namedview
     pagecolor="#ffffff"
     bordercolor="#666666"
     borderopacity="1"
     objecttolerance="10"
     gridtolerance="10"
     guidetolerance="10"
     inkscape:pageopacity="0"
     inkscape:pageshadow="2"
     inkscape:window-width="1150"
     inkscape:window-height="1058"
     id="namedview5"
     showgrid="false"
     inkscape:zoom="4.9166667"
     inkscape:cx="-0.084278949"
     inkscape:cy="21.25252"
     inkscape:window-x="0"
     inkscape:window-y="20"
     inkscape:window-maximized="0"
     inkscape:current-layer="Layer_1" /><path
     style="fill:#33b5e5;fill-opacity:1;fill-rule:evenodd"
     d="m 62.285187,35.459654 -26.961127,0 0,27.202007 c 0,0.373526 -0.303151,0.676677 -0.676676,0.676677 l -5.413412,0 c -0.373526,0 -0.676677,-0.303151 -0.676677,-0.676677 l 0,-27.202007 -26.961127,0 c -0.373525,0 -0.67667701,-0.676677 -0.67667701,-0.676677 l 0,-5.413412 c 0,-0.373525 0.30315201,-0.676676 0.67667701,-0.676676 l 26.961127,0 0,-27.5712975 c 0,-0.373525 0.676677,-0.676676 0.676677,-0.676676 l 5.413412,0 c 0.373525,0 0.676676,0.303151 0.676676,0.676676 l 0,27.5712975 26.961127,0 c 0.373526,0 0.676677,0.303151 0.676677,0.676676 l 0,5.413412 c 0,0.373526 -0.303151,0.676677 -0.676677,0.676677 z"
     id="path3"
     inkscape:connector-curvature="0"
     sodipodi:nodetypes="scsssscscsscscsscssss" /></svg>