<?xml version="1.0" ?><!DOCTYPE svg  PUBLIC '-//W3C//DTD SVG 1.1//EN'  'http://www.w3.org/Graphics/SVG/1.1/DTD/svg11.dtd'><svg enable-background="new 0 0 64 64" height="64px" id="Layer_1" version="1.1" viewBox="0 0 64 64" width="64px" x="0px" xml:space="preserve" xmlns="http://www.w3.org/2000/svg" xmlns:xlink="http://www.w3.org/1999/xlink" y="0px"><g><g><path d="M45.391,19.923    c0,9.109-5.883,17.991-14.987,17.991c-9.108,0-14.992-8.881-14.992-17.991c0-9.108,5.884-14.994,14.992-14.994    C39.508,4.93,45.391,10.815,45.391,19.923z" fill="none" stroke="#000000" stroke-linejoin="round" stroke-miterlimit="10" stroke-width="2"/></g><path d="M32.396,34.826" fill="none" stroke="#000000" stroke-linejoin="round" stroke-miterlimit="10" stroke-width="2"/><path d="M22.796,35.506   C5.536,38.783,2.409,52.818,2.409,52.818l0,0c0,2.486,12.357,6.252,28.992,6.252c16.628,0,28.986-3.766,28.986-6.252l0,0   c0,0-3.32-14.906-22.008-17.582" fill="none" stroke="#000000" stroke-linejoin="round" stroke-miterlimit="10" stroke-width="2"/></g></svg>